# xmcd
#
# Track frame offsets: 
#        150
#        17840
#        30602
#        58304
#        74477
#        95060
#        122407
#        150915
#        183705
#        201325
#        213170
#        235135
#        260300
#        273085
#        286808
#        305673
#        325416
#        343216
#
# Disc length: 4785 seconds
#
# Revision: 1
# Processed by: cddbd v1.5.2PL0 Copyright (c) Steve Scherf et al.
# Submitted via: ExactAudioCopy v1.1
#
DISCID=0e12af12
DTITLE=Various Artist - Trail Of The Wolf - vol.08 - Good Whiskey Blu
DTITLE=es  CD1
DYEAR=2017
DGENRE=Blues
TTITLE0=Kenny Lee - Country Boy
TTITLE1=Jim Suhler And Monkey Beat - Where Were You When The Lights We
TTITLE1=nt Out
TTITLE2=Mike Dugan and The Blues Mission - Blue Eternity
TTITLE3=Hypnotics - Womanizer
TTITLE4=Steve Bassett - Jesus Just Left Chicago
TTITLE5=Chuck Day Band - Parchman Farm
TTITLE6=Nasty Ned and He Famous Chilli Dog - Just Like Life
TTITLE7=Jerry Miller Band - Now I See
TTITLE8=Chris Michie - Sweet Disposition
TTITLE9=Randy Forrester - Mean Old World
TTITLE10=Soul Drivers - Don't Keep Me Waiting
TTITLE11=Pat Ramsey - King Of Fools
TTITLE12=Billy Earl McLelland - Tall Girl in a Short Dress
TTITLE13=Brenda Burns - Broken Hearts Row
TTITLE14=Michael Hardie - Pretenders Blues
TTITLE15=Jeff Jolly - Long Distance Love
TTITLE16=Fred James - Everybody's Gettin' Them Some
TTITLE17=Jhonny Charles - You Move Me
EXTD=
EXTT0=
EXTT1=
EXTT2=
EXTT3=
EXTT4=
EXTT5=
EXTT6=
EXTT7=
EXTT8=
EXTT9=
EXTT10=
EXTT11=
EXTT12=
EXTT13=
EXTT14=
EXTT15=
EXTT16=
EXTT17=
PLAYORDER=
